<svg width="162" height="48" viewBox="0 0 162 48" fill="none" xmlns="http://www.w3.org/2000/svg">
<g clip-path="url(#clip0_8813_120009)">
<path d="M57.7625 39.6469V38.8914H55.9943V39.6469H55.5352V38.4517H55.8608L56.3558 36.5304H56.0594V36.0908H58.1761V36.5435H57.8667V38.4648H58.2347V39.6599L57.7625 39.6469ZM57.3913 36.5304H56.8312L56.3525 38.4517H57.3913V36.5304Z" fill="#00205C"/>
<path d="M60.7781 38.3703C60.7854 38.5057 60.7451 38.6394 60.6641 38.7481C60.6134 38.7976 60.5524 38.8353 60.4854 38.8584C60.4183 38.8815 60.347 38.8894 60.2766 38.8816H59.1759C59.1101 38.8877 59.0437 38.8795 58.9813 38.8576C58.9189 38.8357 58.862 38.8005 58.8145 38.7546C58.7376 38.664 58.6981 38.5476 58.7037 38.4289V36.6314C58.6932 36.552 58.7012 36.4713 58.7273 36.3957C58.7534 36.32 58.7968 36.2514 58.854 36.1955C58.9112 36.1395 58.9807 36.0977 59.057 36.0733C59.1332 36.0489 59.2141 36.0426 59.2931 36.055H60.231C60.3812 36.0412 60.5313 36.0817 60.6543 36.169C60.7011 36.2238 60.7361 36.2876 60.7574 36.3565C60.7787 36.4254 60.7857 36.4978 60.7781 36.5695V37.719H59.1922V38.2661C59.1909 38.3131 59.1998 38.3597 59.2183 38.4029C59.2183 38.4387 59.2801 38.455 59.3583 38.455H60.1203C60.1919 38.455 60.2375 38.4387 60.257 38.4029C60.2792 38.3608 60.2904 38.3137 60.2896 38.2661V38.1163H60.7781V38.3703ZM60.2896 36.69C60.2937 36.6431 60.2822 36.5962 60.257 36.5565C60.2375 36.5304 60.1984 36.5207 60.1398 36.5207H59.355C59.3325 36.5179 59.3097 36.5203 59.2883 36.5276C59.2668 36.5349 59.2474 36.547 59.2313 36.563C59.2178 36.578 59.2074 36.5955 59.2007 36.6145C59.194 36.6335 59.1911 36.6536 59.1922 36.6737V37.299H60.2896V36.69Z" fill="#00205C"/>
<path d="M63.4351 37.0414H62.9955V36.5269H62.5623V38.4514H62.8782V38.891H61.7482V38.4514H62.0739V36.5269H61.6408V37.0414H61.2012V36.0742H63.4351V37.0414Z" fill="#00205C"/>
<path d="M64.2976 38.892C64.2132 38.8954 64.1287 38.8866 64.0468 38.866C63.9883 38.8504 63.9353 38.8188 63.8938 38.7748C63.8551 38.7304 63.8293 38.6764 63.8189 38.6185C63.8018 38.5404 63.7941 38.4606 63.7961 38.3808V37.8044C63.787 37.6662 63.8313 37.5298 63.9198 37.4234C63.977 37.3735 64.0437 37.336 64.116 37.313C64.1883 37.29 64.2645 37.2822 64.3399 37.2899H65.3982V36.6711C65.3987 36.6505 65.3948 36.6301 65.387 36.611C65.3791 36.592 65.3675 36.5747 65.3526 36.5604C65.3217 36.5318 65.2808 36.5166 65.2387 36.5181H64.506C64.4804 36.5169 64.4549 36.5219 64.4317 36.5327C64.4084 36.5435 64.3881 36.5597 64.3725 36.58C64.3405 36.6269 64.3245 36.6828 64.3269 36.7395V37.0065H63.8645V36.593C63.8549 36.4542 63.9006 36.3173 63.9915 36.212C64.0508 36.1632 64.1197 36.1272 64.1937 36.1065C64.2677 36.0857 64.3452 36.0806 64.4213 36.0915H65.3071C65.4022 36.0884 65.4971 36.1028 65.5871 36.1338C65.6562 36.1578 65.7179 36.1993 65.7662 36.2543C65.8097 36.3081 65.8418 36.3701 65.8606 36.4367C65.8781 36.5125 65.8868 36.5901 65.8867 36.6679V38.4654H66.1895V38.9051L64.2976 38.892ZM65.3982 37.7197H64.4636C64.3822 37.7197 64.3301 37.7425 64.3139 37.7816C64.2924 37.8331 64.2824 37.8886 64.2845 37.9444V38.2342C64.2836 38.2867 64.2936 38.3389 64.3139 38.3873C64.3301 38.4296 64.3822 38.4492 64.4636 38.4492H65.3982V37.7197Z" fill="#00205C"/>
<path d="M69.0423 36.5304H68.746V38.4517H69.0423V38.8914H67.9547V38.4517H68.2803V36.5304H67.6291L67.3588 38.2205C67.3473 38.3082 67.3232 38.3938 67.2871 38.4745C67.2542 38.5521 67.2104 38.6244 67.1569 38.6895C67.1057 38.7505 67.0425 38.8004 66.9713 38.836C66.8979 38.8741 66.8162 38.8932 66.7335 38.8914H66.3428V38.4517H66.6326C66.6669 38.453 66.701 38.4456 66.7317 38.4302C66.7625 38.4149 66.7888 38.392 66.8084 38.3638C66.8536 38.3037 66.8828 38.2331 66.8931 38.1587L67.1732 36.5304H66.8638V36.0908H69.0651L69.0423 36.5304Z" fill="#00205C"/>
<path d="M71.2699 36.9469L70.2604 38.891H69.4365V38.4514H69.7361V36.5269H69.4365V36.0742H70.5209V36.5269H70.2246V38.0183H70.2376L71.2438 36.0742H72.0677V36.5269H71.7714V38.4514H72.0677V38.891H70.9833V38.4514H71.2829V36.9469H71.2699Z" fill="#00205C"/>
<path d="M74.956 38.8919C74.8707 38.8945 74.7857 38.8813 74.7052 38.8528C74.644 38.8308 74.59 38.7925 74.5489 38.7421C74.512 38.6925 74.4854 38.636 74.4708 38.576C74.4575 38.5117 74.451 38.4462 74.4512 38.3806V36.5928C74.4468 36.5236 74.4564 36.4542 74.4793 36.3888C74.5023 36.3233 74.5381 36.2631 74.5848 36.2118C74.6419 36.163 74.7082 36.1261 74.7797 36.1032C74.8513 36.0803 74.9267 36.0718 75.0016 36.0783H76.3432V36.964H75.9036V36.5049H75.1188C75.0926 36.5026 75.0663 36.5071 75.0423 36.5179C75.0184 36.5287 74.9976 36.5456 74.982 36.5668C74.9513 36.6165 74.9365 36.6745 74.9397 36.7328V38.2373C74.9393 38.2917 74.9552 38.345 74.9853 38.3904C75.0008 38.4108 75.021 38.4272 75.0443 38.438C75.0676 38.4488 75.0932 38.4537 75.1188 38.4522H75.9296V38.0778H76.3693V38.8919H74.956Z" fill="#00205C"/>
<path d="M78.6426 36.9469L77.6364 38.891H76.8125V38.4514H77.1088V36.5269H76.8125V36.0742H77.8969V36.5269H77.5973V38.0183H77.6103L78.6198 36.0742H79.4437V36.5269H79.1441V38.4514H79.4437V38.891H78.3593V38.4514H78.6556V36.9469H78.6426Z" fill="#00205C"/>
<path d="M80.476 38.8919C80.3896 38.8942 80.3036 38.8809 80.222 38.8528C80.1621 38.83 80.1093 38.7918 80.0689 38.7421C80.0319 38.6925 80.0054 38.636 79.9908 38.576C79.9764 38.5118 79.9687 38.4463 79.968 38.3806V36.5928C79.9632 36.5233 79.9729 36.4536 79.9965 36.388C80.02 36.3224 80.0569 36.2624 80.1047 36.2118C80.1619 36.163 80.2282 36.1261 80.2997 36.1032C80.3713 36.0803 80.4467 36.0718 80.5216 36.0783H81.8632V36.964H81.4236V36.5049H80.6388C80.6126 36.5026 80.5862 36.5071 80.5623 36.5179C80.5383 36.5287 80.5176 36.5456 80.502 36.5668C80.4713 36.6165 80.4565 36.6745 80.4597 36.7328V38.2373C80.4578 38.2919 80.4738 38.3457 80.5053 38.3904C80.5205 38.4111 80.5408 38.4276 80.5641 38.4384C80.5874 38.4492 80.6131 38.454 80.6388 38.4522H81.4496V38.0778H81.886V38.8919H80.476Z" fill="#00205C"/>
<path d="M84.4907 37.0414H84.0511V36.5269H83.618V38.4514H83.9339V38.891H82.8007V38.4514H83.1296V36.5269H82.6964V37.0414H82.2568V36.0742H84.4907V37.0414Z" fill="#00205C"/>
<path d="M87.0345 38.3705C87.0428 38.5054 87.0036 38.6391 86.9238 38.7482C86.8722 38.7975 86.8106 38.8349 86.7431 38.858C86.6756 38.881 86.6039 38.8891 86.533 38.8817H85.4324C85.3713 38.8901 85.3092 38.8848 85.2505 38.8661C85.1918 38.8474 85.138 38.8159 85.0931 38.7737C85.0481 38.7316 85.0132 38.68 84.9907 38.6226C84.9683 38.5652 84.959 38.5035 84.9634 38.4421V36.6445C84.953 36.5655 84.961 36.4851 84.9869 36.4098C85.0128 36.3344 85.0559 36.266 85.1128 36.2102C85.1696 36.1543 85.2386 36.1123 85.3144 36.0877C85.3903 36.0631 85.4708 36.0564 85.5496 36.0682H86.4907C86.6399 36.054 86.7892 36.0945 86.9108 36.1821C86.9582 36.2366 86.9937 36.3003 87.015 36.3693C87.0363 36.4383 87.043 36.511 87.0345 36.5827V37.7192H85.4519V38.2663C85.4496 38.313 85.4574 38.3596 85.4747 38.403C85.4942 38.4389 85.5398 38.4551 85.618 38.4551H86.38C86.4053 38.4589 86.4312 38.456 86.4552 38.4469C86.4791 38.4378 86.5003 38.4227 86.5168 38.403C86.5378 38.3606 86.5479 38.3136 86.5461 38.2663V38.1165H87.0345V38.3705ZM86.5461 36.6901C86.5508 36.6436 86.5406 36.5968 86.5168 36.5566C86.5008 36.5427 86.4822 36.5323 86.462 36.5262C86.4418 36.52 86.4205 36.5182 86.3995 36.5208H85.6115C85.589 36.5183 85.5662 36.5208 85.5448 36.5281C85.5234 36.5354 85.5039 36.5474 85.4877 36.5631C85.4628 36.5945 85.4501 36.6338 85.4519 36.6739V37.2991H86.5461V36.6901Z" fill="#00205C"/>
<path d="M89.6616 38.891V38.4514H89.984V36.732H89.971L89.3294 38.23H89.0071L88.3265 36.732H88.3134V38.4514H88.6358V38.891H87.5352V38.4514H87.8315V36.5269H87.5352V36.0742H88.5121L89.1796 37.5722L89.7918 36.0742H90.7655V36.5269H90.4659V38.4514H90.7655V38.891H89.6616Z" fill="#00205C"/>
<path d="M92.8698 37.185C92.9608 37.1826 93.0517 37.1925 93.14 37.2143C93.1998 37.2327 93.2537 37.2663 93.2964 37.312C93.3341 37.3582 93.3598 37.413 93.3712 37.4716C93.3852 37.5467 93.3918 37.6231 93.3908 37.6995V38.3703C93.396 38.4375 93.396 38.505 93.3908 38.5722C93.3818 38.6323 93.3583 38.6893 93.3224 38.7383C93.283 38.7883 93.2298 38.8257 93.1694 38.8458C93.0821 38.8739 92.9906 38.886 92.8991 38.8816H91.1829V38.442H91.476V36.5207H91.1797V36.0908H92.2673V36.5435H91.9645V37.1948L92.8698 37.185ZM92.8991 37.8363C92.9005 37.7824 92.8939 37.7286 92.8795 37.6767C92.8633 37.6344 92.8111 37.6148 92.72 37.6148H91.9482V38.4485H92.72C92.8111 38.4485 92.8633 38.4289 92.8795 38.3834C92.8929 38.3346 92.8994 38.2842 92.8991 38.2336V37.8363ZM93.5764 36.5337V36.0908H94.6315V36.5435H94.3286V38.4648H94.6315V38.9044H93.5764V38.4648H93.8662V36.5435L93.5764 36.5337Z" fill="#00205C"/>
<path d="M99.1744 38.3704C99.1751 38.4414 99.1686 38.5123 99.1549 38.582C99.1462 38.6434 99.1202 38.701 99.08 38.7481C99.0334 38.7968 98.9751 38.8326 98.9106 38.8523C98.8196 38.8782 98.7252 38.8903 98.6306 38.8881H97.5853C97.5077 38.8981 97.4289 38.8907 97.3546 38.8665C97.2803 38.8423 97.2122 38.8019 97.1554 38.7481C97.0739 38.6397 97.0336 38.5058 97.0415 38.3704V36.5891C97.0327 36.5168 97.041 36.4435 97.0657 36.375C97.0904 36.3066 97.1308 36.2448 97.1837 36.1948C97.2366 36.1448 97.3005 36.1078 97.3702 36.0869C97.44 36.0661 97.5136 36.0618 97.5853 36.0746H98.6143C98.7079 36.0721 98.8013 36.0842 98.8911 36.1104C98.9551 36.131 99.0132 36.1667 99.0604 36.2146C99.102 36.2591 99.1302 36.3144 99.1419 36.3742C99.1584 36.4446 99.166 36.5168 99.1646 36.5891L99.1744 38.3704ZM98.6925 36.7096C98.6928 36.6655 98.6828 36.622 98.6632 36.5826C98.6632 36.5435 98.6045 36.5272 98.5362 36.5272H97.6765C97.6527 36.5238 97.6285 36.5272 97.6066 36.537C97.5847 36.5468 97.566 36.5626 97.5527 36.5826C97.5331 36.622 97.5231 36.6655 97.5234 36.7096V38.2662C97.5233 38.3082 97.5299 38.35 97.543 38.3899C97.5592 38.429 97.6016 38.4485 97.6765 38.4485H98.5362C98.6045 38.4485 98.6469 38.429 98.6632 38.3867C98.6828 38.3472 98.6928 38.3037 98.6925 38.2597V36.7096Z" fill="#00205C"/>
<path d="M101.183 38.891V38.5817L100.792 37.9076L100.411 38.5817V38.891H99.5938V38.4514H99.952L100.528 37.4452L99.9943 36.5269H99.6361V36.0742H100.466V36.3868L100.799 36.9665L101.128 36.3868V36.0742H101.938V36.5269H101.58L101.066 37.4289L101.655 38.4514H102.013V38.891H101.183Z" fill="#00205C"/>
<path d="M104.818 36.5304H104.521V38.4517H104.818V38.8914H103.727V38.4517H104.036V36.5304H103.385L103.111 38.2205C103.101 38.3081 103.078 38.3936 103.043 38.4745C103.01 38.5521 102.966 38.6244 102.913 38.6895C102.862 38.7505 102.798 38.8004 102.727 38.836C102.654 38.8741 102.572 38.8932 102.489 38.8914H102.099V38.4517H102.388C102.423 38.453 102.457 38.4456 102.488 38.4302C102.518 38.4149 102.545 38.392 102.564 38.3638C102.609 38.3037 102.639 38.2331 102.649 38.1587L102.926 36.5304H102.6V36.0908H104.805L104.818 36.5304Z" fill="#00205C"/>
<path d="M105.814 38.8919C105.729 38.8953 105.645 38.8865 105.563 38.8659C105.504 38.8503 105.451 38.8187 105.41 38.7747C105.372 38.7296 105.345 38.676 105.332 38.6184C105.317 38.54 105.311 38.4604 105.312 38.3807V37.8043C105.302 37.6659 105.346 37.5291 105.436 37.4233C105.493 37.3734 105.56 37.3359 105.632 37.3129C105.704 37.2899 105.78 37.2821 105.856 37.2898H106.914V36.671C106.915 36.6504 106.911 36.63 106.903 36.6109C106.895 36.5919 106.883 36.5746 106.869 36.5603C106.837 36.5323 106.797 36.5172 106.755 36.518H106.022C105.996 36.5168 105.971 36.5218 105.948 36.5326C105.924 36.5434 105.904 36.5596 105.888 36.5799C105.856 36.6268 105.84 36.6827 105.843 36.7394V37.0064H105.38V36.5929C105.371 36.4541 105.417 36.3172 105.507 36.2119C105.565 36.1616 105.632 36.1238 105.705 36.1008C105.778 36.0779 105.855 36.0702 105.931 36.0784H106.813C106.909 36.0753 107.005 36.0896 107.097 36.1207C107.166 36.1447 107.227 36.1862 107.276 36.2412C107.319 36.2944 107.35 36.3567 107.367 36.4235C107.387 36.4989 107.397 36.5767 107.396 36.6548V38.4523H107.699V38.8919H105.814ZM106.914 37.7229H105.98C105.898 37.7229 105.846 37.7457 105.827 37.7847C105.808 37.8369 105.799 37.8921 105.801 37.9476V38.2374C105.8 38.2895 105.809 38.3414 105.827 38.3904C105.846 38.4328 105.898 38.4523 105.98 38.4523H106.914V37.7229Z" fill="#00205C"/>
<path d="M110.78 38.8914V38.4517H110.988V37.8721C110.991 37.8121 110.981 37.7522 110.959 37.6962C110.943 37.6507 110.891 37.6311 110.809 37.6311H110.077V38.4517H110.402V38.8914H109.295V38.4517H109.621V37.6311H108.872C108.79 37.6311 108.738 37.6507 108.719 37.6962C108.694 37.7514 108.683 37.8117 108.686 37.8721V38.4517H108.917V38.8914H107.921V38.4517H108.211V37.8005C108.211 37.7253 108.216 37.6502 108.227 37.5758C108.236 37.51 108.263 37.448 108.305 37.3967C108.354 37.3417 108.417 37.3011 108.488 37.2794C108.593 37.2483 108.703 37.2341 108.813 37.2371H108.908L108.256 36.5207H107.98V36.0908H108.973V36.5435H108.82L109.585 37.3836H109.604V36.5435H109.315V36.0908H110.36V36.5435H110.064V37.3836H110.083L110.848 36.5435H110.695V36.0908H111.689V36.5435H111.412L110.76 37.2599H110.848C110.958 37.257 111.068 37.2701 111.174 37.299C111.243 37.3213 111.306 37.3604 111.356 37.4129C111.397 37.4661 111.423 37.529 111.431 37.5953C111.444 37.6706 111.449 37.7469 111.448 37.8233V38.4745H111.75V38.9142L110.78 38.8914Z" fill="#00205C"/>
<path d="M114.173 39.6469V38.8914H112.402V39.6469H111.946V38.4517H112.271L112.766 36.5304H112.47V36.0908H114.587V36.5435H114.277V38.4648H114.642V39.6599L114.173 39.6469ZM113.802 36.5304H113.239L112.76 38.4517H113.802V36.5304Z" fill="#00205C"/>
<path d="M117.175 38.3707C117.184 38.5057 117.145 38.6393 117.065 38.7484C117.013 38.7977 116.952 38.8351 116.884 38.8582C116.817 38.8813 116.745 38.8894 116.674 38.882H115.573C115.508 38.8885 115.442 38.8805 115.38 38.8585C115.318 38.8365 115.262 38.8012 115.215 38.7549C115.136 38.6655 115.095 38.5486 115.101 38.4293V36.6318C115.091 36.5526 115.1 36.4721 115.126 36.3968C115.152 36.3214 115.196 36.2532 115.253 36.1974C115.31 36.1416 115.379 36.0997 115.455 36.0751C115.531 36.0505 115.612 36.0437 115.691 36.0554H116.632C116.781 36.0412 116.93 36.0817 117.052 36.1693C117.098 36.2242 117.134 36.288 117.155 36.3569C117.176 36.4257 117.183 36.4982 117.175 36.5699V37.7194H115.593V38.2665C115.591 38.3132 115.598 38.3598 115.616 38.4033C115.632 38.4391 115.681 38.4554 115.759 38.4554H116.524C116.596 38.4554 116.641 38.4391 116.661 38.4033C116.685 38.3617 116.696 38.3142 116.694 38.2665V38.1167H117.175V38.3707ZM116.687 36.6904C116.693 36.6434 116.681 36.5959 116.654 36.5569C116.635 36.5308 116.596 36.521 116.537 36.521H115.752C115.73 36.5185 115.707 36.521 115.686 36.5283C115.664 36.5356 115.645 36.5476 115.629 36.5634C115.603 36.5941 115.59 36.6339 115.593 36.6741V37.2993H116.687V36.6904Z" fill="#00205C"/>
<path d="M118.472 37.6601V38.4514H118.768V38.891H117.684V38.4514H117.983V36.5269H117.684V36.0742H118.768V36.5269H118.472V37.2075H119.53V36.5269H119.23V36.0742H120.315V36.5269H120.018V38.4514H120.315V38.891H119.23V38.4514H119.53V37.6601H118.472Z" fill="#00205C"/>
<path d="M122.535 36.9469L121.526 38.891H120.705V38.4514H121.001V36.5269H120.705V36.0742H121.786V36.5269H121.49V38.0183H121.503L122.509 36.0742H123.333V36.5269H123.037V38.4514H123.333V38.891H122.252V38.4514H122.548V36.9469H122.535Z" fill="#00205C"/>
<path d="M125.883 36.531V38.4523H126.176V38.8919H125.105V38.4523H125.395V37.6382H124.571C124.546 37.6352 124.521 37.6394 124.498 37.6504C124.476 37.6614 124.457 37.6786 124.444 37.7001C124.42 37.7496 124.408 37.8045 124.411 37.8596V38.4523H124.672V38.8919H123.587V38.4523H123.929V37.801C123.924 37.7011 123.95 37.602 124.004 37.5177C124.049 37.4549 124.117 37.4118 124.193 37.3972V37.394C124.157 37.3891 124.122 37.377 124.091 37.3586C124.06 37.3401 124.032 37.3156 124.011 37.2865C123.964 37.2175 123.94 37.1354 123.942 37.052V36.5343C123.935 36.4679 123.945 36.4007 123.972 36.3396C123.999 36.2784 124.042 36.2254 124.095 36.1858C124.207 36.1186 124.336 36.0848 124.467 36.0881H126.176V36.5408L125.883 36.531ZM125.395 36.531H124.577C124.502 36.531 124.46 36.5505 124.447 36.5864C124.436 36.6344 124.43 36.6836 124.431 36.7329V37.0585C124.43 37.1049 124.437 37.151 124.45 37.1953C124.467 37.2376 124.519 37.2604 124.61 37.2604H125.395V36.531Z" fill="#00205C"/>
<path fill-rule="evenodd" clip-rule="evenodd" d="M59.5633 18.0013C59.82 17.9916 60.0758 18.036 60.3143 18.1315C60.5527 18.227 60.7684 18.3715 60.9474 18.5557C61.1264 18.74 61.2647 18.9597 61.3533 19.2008C61.4419 19.4419 61.4789 19.6989 61.4618 19.9552V27.178C61.4618 27.7999 61.6084 27.9953 62.1131 27.9953H70.7426V26.9728C70.732 26.6971 70.6375 26.4311 70.4716 26.2105C70.3058 25.99 70.0765 25.8253 69.8145 25.7386V25.1459H73.0221C74.1065 25.1459 74.7936 25.934 74.7936 27.1649V29.6789H58.3064C57.0331 29.6789 56.3981 28.7508 56.3981 27.6371V20.0203C56.3981 18.861 55.5254 18.62 55.5254 18.62V18.0013H59.5633Z" fill="#00205C"/>
<path fill-rule="evenodd" clip-rule="evenodd" d="M80.6809 18.0012C80.9372 17.992 81.1927 18.0367 81.4308 18.1324C81.6688 18.2281 81.8841 18.3727 82.0627 18.5569C82.2414 18.741 82.3794 18.9606 82.4678 19.2015C82.5562 19.4423 82.5931 19.6991 82.5761 19.9551V27.23C82.5618 27.329 82.5698 27.43 82.5996 27.5256C82.6294 27.6211 82.6801 27.7088 82.7482 27.7822C82.8163 27.8556 82.8999 27.9128 82.993 27.9496C83.086 27.9865 83.1861 28.0021 83.286 27.9952H90.9809V19.8085C90.9704 19.5336 90.8762 19.2684 90.7109 19.0485C90.5456 18.8285 90.3172 18.6642 90.0561 18.5776V18.0012H95.9176V29.6788H79.4206C78.1506 29.6788 77.5156 28.7507 77.5156 27.637V20.0202C77.5156 18.8609 76.6396 18.6199 76.6396 18.6199V18.0012H80.6809Z" fill="#00205C"/>
<path fill-rule="evenodd" clip-rule="evenodd" d="M137.691 18.001H120.399V18.5741C120.664 18.6586 120.896 18.8223 121.064 19.0431C121.233 19.2638 121.329 19.5309 121.341 19.8083V27.9494C121.341 28.9264 121.907 30.0173 123.187 30.0173H126.193V24.9242H134.936V29.6949H139.785V20.2512C139.785 18.8607 139.042 18.0107 137.694 18.0107M134.936 23.2211H126.202V20.2903C126.195 20.2134 126.204 20.1357 126.231 20.0632C126.258 19.9907 126.301 19.9252 126.357 19.8718C126.413 19.8185 126.48 19.7785 126.554 19.7551C126.627 19.7317 126.706 19.7254 126.782 19.7367H134.366C134.443 19.7254 134.521 19.7317 134.594 19.7551C134.668 19.7785 134.735 19.8185 134.791 19.8718C134.847 19.9252 134.89 19.9907 134.917 20.0632C134.944 20.1357 134.954 20.2134 134.946 20.2903L134.936 23.2211Z" fill="#00205C"/>
<path fill-rule="evenodd" clip-rule="evenodd" d="M160.958 28.3858C160.427 27.6987 159.447 26.1063 159.004 25.5299C158.812 25.2418 158.532 25.0236 158.206 24.9079C158.206 24.9079 161.075 25.2075 161.075 23.0973V20.2414C161.075 18.8509 160.326 18.001 158.984 18.001H142.015V18.5741C142.276 18.6615 142.504 18.8265 142.669 19.0471C142.834 19.2676 142.927 19.5332 142.937 19.8083V27.9494C142.937 28.9264 143.503 30.0173 144.777 30.0173H147.785V24.9079H152.67C152.866 24.935 153.054 25.0025 153.222 25.1063C153.39 25.21 153.535 25.3476 153.647 25.5103C154.015 26.1193 154.771 27.3014 155.233 28.0569C155.503 28.5603 155.908 28.9791 156.401 29.2665C156.895 29.5539 157.459 29.6988 158.03 29.6851H161.993V28.9101C161.792 28.9087 161.593 28.8614 161.412 28.7717C161.232 28.6819 161.074 28.5522 160.951 28.3923M156.213 23.195H147.785V19.7171H155.633C155.71 19.7052 155.788 19.711 155.862 19.7342C155.936 19.7574 156.004 19.7973 156.06 19.8508C156.116 19.9043 156.159 19.9701 156.186 20.0429C156.212 20.1157 156.222 20.1937 156.213 20.2707V23.195Z" fill="#00205C"/>
<path fill-rule="evenodd" clip-rule="evenodd" d="M103.57 20.6713C103.64 20.8754 103.755 21.0608 103.908 21.2133C104.06 21.3657 104.245 21.4811 104.45 21.5505V22.1269H101.151C100.693 22.1035 100.262 21.9047 99.9464 21.5719C99.6311 21.239 99.4561 20.7976 99.4575 20.3391V18.001H117.96C117.96 18.001 117.96 18.1475 117.96 18.8053C117.96 19.4631 117.579 20.2056 116.511 20.9025C115.974 21.2607 108.025 26.2496 105.713 27.6238C105.648 27.6528 105.595 27.7023 105.561 27.7646C105.526 27.8269 105.514 27.8987 105.524 27.969H113.359C113.359 27.969 113.359 27.3339 113.359 27.1711C113.361 26.9147 113.27 26.6661 113.104 26.4707C112.938 26.2753 112.707 26.146 112.454 26.1063V25.5462H115.756C116.213 25.5696 116.644 25.7685 116.959 26.1014C117.274 26.4344 117.448 26.8758 117.446 27.3339V29.6786H99.0928C99.0928 29.6786 99.0928 29.5321 99.0928 28.858C99.0928 28.1839 99.4705 27.4642 100.539 26.7641C100.539 26.7641 110.702 20.3945 111.093 20.1535C111.483 19.9125 111.363 19.6878 111.363 19.6878H103.548C103.548 19.6878 103.548 20.5573 103.583 20.6647" fill="#00205C"/>
<path d="M28.1191 20.5084C26.2206 20.4629 25.3479 20.3586 24.2765 21.0392C23.2051 21.7198 19.7501 22.0162 18.2945 22.6479C16.8389 23.2797 17.6139 24.0417 18.7797 24.0417C20.4991 24.0417 34.2053 21.316 34.2444 20.1926C34.2639 19.5901 30.2878 20.5508 28.1191 20.4987M8.77923 18.4211C8.95182 18.8151 9.41098 18.8086 9.33608 19.1733C9.24871 19.5558 9.3129 19.9573 9.51518 20.2935C9.71382 20.4889 9.76593 19.4729 10.0981 19.3915C10.7689 19.2287 12.2017 20.4108 12.1366 18.7597C12.0682 17.0143 8.06282 16.7635 8.77923 18.4341M9.21885 22.2604C9.13418 21.8468 9.08533 20.7266 8.53174 20.3065C7.97815 19.8865 7.58413 19.9386 7.63623 20.7071C7.68833 21.4756 7.80557 22.0097 8.32659 22.3353C8.84762 22.661 9.30351 22.687 9.21885 22.2734M10.1111 28.4118C8.22239 28.1611 7.72741 24.6474 7.78603 23.69C7.80557 23.3285 8.11167 23.2048 7.73392 22.4265C6.58441 19.9646 8.05957 19.2808 8.29403 18.3201C8.41451 17.8414 8.53826 17.3432 9.12116 17.0403C9.80826 16.7147 14.1816 13.5592 14.0579 13.1131C13.9341 12.6669 13.6736 12.1589 14.1784 12.1589C15.7252 12.1589 17.7604 9.00017 21.0429 8.84386C24.0355 8.70058 26.7546 8.72663 27.7543 8.51821C28.7541 8.3098 31.8574 6.90953 32.5706 6.84766C33.1307 6.79881 33.3977 7.03979 33.1763 7.42405C32.8779 7.88072 32.6331 8.37024 32.4468 8.88294C31.662 11.9928 25.3055 8.50193 20.1897 9.73612C18.5615 10.1236 13.1461 13.4289 16.0248 13.4289C16.5034 13.4289 16.6467 13.5722 16.5653 13.8295C16.4416 14.2268 8.15075 16.3272 11.1173 17.3302C13.9765 18.3071 12.8888 15.6596 14.1556 15.8224C14.6961 15.8941 15.1781 16.2816 15.4581 16.1643C15.7382 16.0471 14.8296 15.2688 16.7933 15.6042C17.3729 15.7052 20.3753 16.7831 20.4665 15.7443C20.4925 15.4837 19.8575 15.3144 20.0757 14.9985C20.2939 14.6827 21.1666 14.6729 21.5834 14.8032C22.6385 15.1744 22.2347 16.0113 23.6089 16.1806C24.9831 16.35 25.8884 16.0373 26.9858 16.2164C28.0832 16.3956 28.8843 16.5421 29.3435 16.8124C29.8026 17.0827 29.718 17.5255 29.3435 17.646C28.969 17.7665 28.5163 17.4474 27.9107 17.3855C27.6795 17.3279 27.4391 17.3179 27.204 17.3562C27.204 17.3562 26.7025 18.6588 25.3739 18.6588C23.9085 18.6588 23.635 17.8382 23.6513 16.9882C23.4852 16.7668 22.9251 16.8384 22.7395 17.1022C22.4138 17.5679 23.3908 18.0173 23.6578 18.4667C24.9603 20.668 19.0662 14.2333 14.6571 19.2026C13.2307 20.8113 9.18954 19.2026 10.033 22.433C10.5735 24.5041 13.4945 25.2466 13.8332 24.7907C13.9276 24.693 12.9702 22.0227 14.5984 21.3356C20.5349 18.8281 28.3405 20.7234 31.3397 18.4048C36.081 14.7152 22.3552 15.7996 25.934 13.9272C27.4287 13.1391 29.1318 13.6699 30.6884 12.7972C32.7432 11.6411 32.2091 9.43327 34.6905 9.75241C41.148 10.5795 44.6877 6.74996 44.3686 8.77547C43.8996 11.7519 34.7882 14.5589 44.0755 18.281C46.6806 19.3198 46.8044 23.7975 46.8044 24.6409C46.8012 27.789 46.1624 30.9041 44.9263 33.7995C43.6902 36.6948 41.8822 39.3107 39.6107 41.4904C37.3392 43.6701 34.6509 45.3687 31.7071 46.4843C28.7633 47.6 25.6245 48.1098 22.479 47.9831C10.3488 47.5141 0.475382 37.6406 0.00971473 25.5331C-0.10864 22.3903 0.40874 19.2558 1.53085 16.3177C2.65295 13.3796 4.35669 10.6982 6.53994 8.43436C8.7232 6.1705 11.341 4.37073 14.2366 3.14291C17.1321 1.91508 20.2457 1.28449 23.3908 1.28891C23.3908 1.28891 24.9538 1.28891 25.5823 1.28891C27.5362 1.30844 27.8618 -0.0136719 27.8618 -0.0136719H28.7182C28.7912 0.726731 28.7781 1.4731 28.6792 2.21048C28.1288 7.25146 22.5669 6.90302 22.5669 6.90302C20.0379 6.90045 17.5332 7.39636 15.196 8.36239C12.8588 9.32842 10.7349 10.7456 8.9457 12.533C7.15653 14.3204 5.73718 16.4429 4.76878 18.7791C3.80039 21.1154 3.30195 23.6196 3.30195 26.1486C3.30195 41.6363 20.8508 48.8428 26.1131 43.7757C28.1549 41.8219 26.1131 39.3046 24.5533 40.0308C22.8437 40.8352 22.1142 44.4922 19.5319 44.0167C15.5526 43.2808 13.0516 37.7513 13.4066 37.1196C13.6932 36.6051 16.269 38.2528 16.5686 37.5527C16.9431 36.6734 16.3797 31.131 16.3764 30.6946C16.3569 29.1445 18.2326 28.7245 18.3303 29.3041C18.5778 30.6653 18.4833 37.1945 16.904 38.7706C15.8619 39.8126 19.4733 41.0957 19.1411 40.4216C18.8969 39.9331 18.4117 38.7478 18.4117 38.1128C18.4117 37.4778 18.8969 37.6211 19.7143 38.357C21.5248 39.9657 27.9107 36.1654 24.9245 30.9551C24.3188 29.8935 23.7294 29.151 21.7625 28.3304C15.2106 25.5885 15.7186 31.5869 15.6828 32.1177C15.634 32.8406 15.1488 32.7494 14.7059 31.8213C14.2433 30.6638 14.011 29.4271 14.0221 28.1806C14.1132 27.0572 10.3651 25.4875 10.0916 25.9956C9.45657 27.1223 10.681 28.4737 10.1111 28.3956M24.5468 26.2593C27.8976 26.7999 29.4314 30.8183 30.1836 30.4927C31.0889 30.0987 28.9039 24.9567 26.0187 24.7288C23.4689 24.5302 22.9642 26.0314 24.5468 26.2561M24.6933 18.1312C24.9897 18.1312 25.2078 17.8316 25.172 17.4441C25.1688 17.368 25.1523 17.2931 25.1232 17.2227C24.7935 17.218 24.4656 17.1743 24.1462 17.0924C24.0844 17.2455 23.9606 18.1312 24.6868 18.1312M31.6686 26.6468C31.8932 27.4316 32.8181 30.0108 32.7269 31.2612C32.6357 32.5117 32.4957 33.0132 31.9291 33.9185C31.3625 34.8238 30.5744 36.058 31.3364 36.6246C32.0984 37.1912 37.8948 32.4791 35.8661 30.6848C35.1041 30.0075 34.0034 29.0175 33.6647 27.6661C33.3261 26.3147 33.3065 25.3443 32.5087 25.2205C31.7109 25.0968 31.4373 25.8718 31.662 26.6534" fill="#00205C"/>
</g>
<defs>
<clipPath id="clip0_8813_120009">
<rect width="162" height="48" fill="white"/>
</clipPath>
</defs>
</svg>
